/* XPM */
static char * sams_xpm[] = {
"64 64 620 2",
"  	c None",
". 	c #FFFFFF",
"+ 	c #FEFEFE",
"@ 	c #FAFAFA",
"# 	c #F8F8F8",
"$ 	c #FCFCFC",
"% 	c #F5F5F5",
"& 	c #FDFDFD",
"* 	c #F6F6F6",
"= 	c #F7F7F7",
"- 	c #FBFBFB",
"; 	c #E6E6E6",
"> 	c #D8D8D8",
", 	c #BFBFBF",
"' 	c #969696",
") 	c #E2E2E2",
"! 	c #939393",
"~ 	c #959595",
"{ 	c #ADADAD",
"] 	c #A1A1A1",
"^ 	c #A4A4A4",
"/ 	c #A5A5A5",
"( 	c #D2D2D2",
"_ 	c #F1F1F1",
": 	c #D4D4D4",
"< 	c #EFEFEF",
"[ 	c #D7D7D7",
"} 	c #8D8D8D",
"| 	c #A7A7A7",
"1 	c #555555",
"2 	c #CDCDCD",
"3 	c #9A9A9A",
"4 	c #3A3A3A",
"5 	c #BBBBBB",
"6 	c #F2F2F2",
"7 	c #DFDFDF",
"8 	c #BEBEBE",
"9 	c #E1E1E1",
"0 	c #F4F4F4",
"a 	c #EAEAEA",
"b 	c #C7C7C7",
"c 	c #B4B4B4",
"d 	c #CFCFCF",
"e 	c #B0B0B0",
"f 	c #C4C4C4",
"g 	c #CACACA",
"h 	c #757575",
"i 	c #ECECEC",
"j 	c #A3A3A3",
"k 	c #666666",
"l 	c #949494",
"m 	c #E3E3E3",
"n 	c #F9F9F9",
"o 	c #A2A2A2",
"p 	c #575757",
"q 	c #7C7C7C",
"r 	c #EEEEEE",
"s 	c #989898",
"t 	c #434343",
"u 	c #D9D9D9",
"v 	c #E9E9E9",
"w 	c #D0D0D0",
"x 	c #E8E8E8",
"y 	c #E0E0E0",
"z 	c #E7E7E7",
"A 	c #CBCBCB",
"B 	c #DBDBDB",
"C 	c #DDDDDD",
"D 	c #DEDEDE",
"E 	c #D5D5D5",
"F 	c #C6C6C6",
"G 	c #818181",
"H 	c #A0A0A0",
"I 	c #CCCCCC",
"J 	c #7B7B7B",
"K 	c #717171",
"L 	c #7D7D7D",
"M 	c #C0C0C0",
"N 	c #B5B5B5",
"O 	c #B9B9B9",
"P 	c #D3D3D3",
"Q 	c #DCDCDC",
"R 	c #D1D1D1",
"S 	c #DADADA",
"T 	c #BCBCBC",
"U 	c #A6A6A6",
"V 	c #919191",
"W 	c #B2B2B2",
"X 	c #9E9E9E",
"Y 	c #838383",
"Z 	c #979797",
"` 	c #C8C8C8",
" .	c #C2C2C2",
"..	c #C3C3C3",
"+.	c #CECECE",
"@.	c #BDBDBD",
"#.	c #C5C5C5",
"$.	c #B6B6B6",
"%.	c #E4E4E4",
"&.	c #6F6F6F",
"*.	c #999999",
"=.	c #9C9C9C",
"-.	c #5F5F5F",
";.	c #9D9D9D",
">.	c #D6D6D6",
",.	c #ACACAC",
"'.	c #C9C9C9",
").	c #E5E5E5",
"!.	c #595959",
"~.	c #9B9B9B",
"{.	c #888888",
"].	c #2A2A2A",
"^.	c #848484",
"/.	c #6C6C6C",
"(.	c #1D1D1D",
"_.	c #787878",
":.	c #BABABA",
"<.	c #EDEDED",
"[.	c #EBEBEB",
"}.	c #B7B7B7",
"|.	c #AAAAAA",
"1.	c #494949",
"2.	c #313131",
"3.	c #454545",
"4.	c #7F7F7F",
"5.	c #1C1C1C",
"6.	c #444444",
"7.	c #ABABAB",
"8.	c #676767",
"9.	c #727272",
"0.	c #C1C1C1",
"a.	c #B1B1B1",
"b.	c #515151",
"c.	c #3B3B3B",
"d.	c #8C8C8C",
"e.	c #131313",
"f.	c #2D2D2D",
"g.	c #9F9F9F",
"h.	c #616161",
"i.	c #6A6A6A",
"j.	c #AFAFAF",
"k.	c #3E3E3E",
"l.	c #4C4C4C",
"m.	c #797979",
"n.	c #343434",
"o.	c #7E7E7E",
"p.	c #909090",
"q.	c #2E2E2E",
"r.	c #A9A9A9",
"s.	c #5E5E5E",
"t.	c #363636",
"u.	c #353535",
"v.	c #828282",
"w.	c #222222",
"x.	c #383838",
"y.	c #1A1A1A",
"z.	c #3C3C3C",
"A.	c #747474",
"B.	c #535353",
"C.	c #3D3D3D",
"D.	c #414141",
"E.	c #737373",
"F.	c #2C2C2C",
"G.	c #1E1E1E",
"H.	c #B8B8B8",
"I.	c #0C0C0C",
"J.	c #B3B3B3",
"K.	c #4F4F4F",
"L.	c #232323",
"M.	c #2B2B2B",
"N.	c #858585",
"O.	c #181818",
"P.	c #6D6D6D",
"Q.	c #686868",
"R.	c #4E4E4E",
"S.	c #777777",
"T.	c #8F8F8F",
"U.	c #272727",
"V.	c #7A7A7A",
"W.	c #202020",
"X.	c #A8A8A8",
"Y.	c #6B6B6B",
"Z.	c #373737",
"`.	c #6E6E6E",
" +	c #4D4D4D",
".+	c #2F2F2F",
"++	c #929292",
"@+	c #808080",
"#+	c #5D5D5D",
"$+	c #565656",
"%+	c #878787",
"&+	c #3F3F3F",
"*+	c #4A4A4A",
"=+	c #F3F3F3",
"-+	c #8A8A8A",
";+	c #898989",
">+	c #292929",
",+	c #424242",
"'+	c #696969",
")+	c #868686",
"!+	c #252525",
"~+	c #282828",
"{+	c #AEAEAE",
"]+	c #8E8E8E",
"^+	c #474747",
"/+	c #5C5C5C",
"(+	c #303030",
"_+	c #F0F0F0",
":+	c #5B5B5B",
"<+	c #404040",
"[+	c #323232",
"}+	c #636363",
"|+	c #646464",
"1+	c #585858",
"2+	c #333333",
"3+	c #656565",
"4+	c #8B8B8B",
"5+	c #606060",
"6+	c #707070",
"7+	c #5A5A5A",
"8+	c #E4DEDE",
"9+	c #DCD2D2",
"0+	c #E6DCDC",
"a+	c #E1DBDB",
"b+	c #E9E8E8",
"c+	c #E1DDDD",
"d+	c #D7D4D4",
"e+	c #C6C5C5",
"f+	c #E0DCDC",
"g+	c #BEBABA",
"h+	c #DDDADA",
"i+	c #D7D6D6",
"j+	c #B1AEAE",
"k+	c #BDB9B9",
"l+	c #E2E1E1",
"m+	c #C6BFBF",
"n+	c #B3A9A9",
"o+	c #C4BBBB",
"p+	c #B7B1B1",
"q+	c #CCCBCB",
"r+	c #DACFCF",
"s+	c #E3B0B0",
"t+	c #EC8585",
"u+	c #EB6C6C",
"v+	c #F07272",
"w+	c #EA7D7D",
"x+	c #E1A0A0",
"y+	c #DFCACA",
"z+	c #DFDEDE",
"A+	c #D8C4C4",
"B+	c #EA8888",
"C+	c #DDA0A0",
"D+	c #C9B1B1",
"E+	c #E79797",
"F+	c #E08787",
"G+	c #DD8383",
"H+	c #DEAEAE",
"I+	c #D7BCBC",
"J+	c #D57E7E",
"K+	c #E68F8F",
"L+	c #E79696",
"M+	c #CBAFAF",
"N+	c #D9CDCD",
"O+	c #C79292",
"P+	c #E17979",
"Q+	c #DC5D5D",
"R+	c #E26666",
"S+	c #D76A6A",
"T+	c #E3A4A4",
"U+	c #C3AFAF",
"V+	c #DDCACA",
"W+	c #F36767",
"X+	c #FA2323",
"Y+	c #EE6F6F",
"Z+	c #EA9A9A",
"`+	c #EB9090",
" @	c #F44848",
".@	c #FE0000",
"+@	c #F05353",
"@@	c #DBD0D0",
"#@	c #DCD9D9",
"$@	c #E67E7E",
"%@	c #FF0000",
"&@	c #F04C4C",
"*@	c #D29F9F",
"=@	c #EE6969",
"-@	c #FC0909",
";@	c #F53E3E",
">@	c #F14B4B",
",@	c #F22E2E",
"'@	c #EC6363",
")@	c #D2ADAD",
"!@	c #CAB4B4",
"~@	c #EB5A5A",
"{@	c #F42020",
"]@	c #E66A6A",
"^@	c #D38383",
"/@	c #DD8181",
"(@	c #EC3B3B",
"_@	c #F35D5D",
":@	c #CAC2C2",
"<@	c #D9D5D5",
"[@	c #EC7B7B",
"}@	c #FC0C0C",
"|@	c #E2B4B4",
"1@	c #F92525",
"2@	c #ED7676",
"3@	c #D6D0D0",
"4@	c #E5BFBF",
"5@	c #F82727",
"6@	c #FE0404",
"7@	c #F94040",
"8@	c #DDC2C2",
"9@	c #FC1111",
"0@	c #FA0F0F",
"a@	c #FB1717",
"b@	c #EBDFDF",
"c@	c #D87979",
"d@	c #FA1A1A",
"e@	c #D79090",
"f@	c #CAC4C4",
"g@	c #F37A7A",
"h@	c #F80F0F",
"i@	c #DBB2B2",
"j@	c #F81B1B",
"k@	c #F28383",
"l@	c #E3DFDF",
"m@	c #E0D3D3",
"n@	c #FA2020",
"o@	c #F63232",
"p@	c #ED6363",
"q@	c #E5ACAC",
"r@	c #DCDBDB",
"s@	c #D9D3D3",
"t@	c #EB7373",
"u@	c #F44141",
"v@	c #F24444",
"w@	c #F81F1F",
"x@	c #DDA7A7",
"y@	c #DFC2C2",
"z@	c #FD0909",
"A@	c #E45757",
"B@	c #FC0808",
"C@	c #DF8C8C",
"D@	c #D6A9A9",
"E@	c #E94949",
"F@	c #F53939",
"G@	c #C8ABAB",
"H@	c #D6C3C3",
"I@	c #FA1C1C",
"J@	c #ED3434",
"K@	c #E55353",
"L@	c #DCA9A9",
"M@	c #CFCECE",
"N@	c #DFCFCF",
"O@	c #FE0303",
"P@	c #F82626",
"Q@	c #DDBFBF",
"R@	c #DBACAC",
"S@	c #F63333",
"T@	c #DEB9B9",
"U@	c #EB5E5E",
"V@	c #E39292",
"W@	c #E69292",
"X@	c #F53636",
"Y@	c #E9ADAD",
"Z@	c #EE5656",
"`@	c #E0D6D6",
" #	c #F05555",
".#	c #DD9898",
"+#	c #F73131",
"@#	c #D8D0D0",
"##	c #DBC4C4",
"$#	c #F32828",
"%#	c #DCC0C0",
"&#	c #DFD3D3",
"*#	c #F83232",
"=#	c #EC8383",
"-#	c #E6A9A9",
";#	c #E0CECE",
">#	c #D6D2D2",
",#	c #F15151",
"'#	c #EC7E7E",
")#	c #E87D7D",
"!#	c #E77A7A",
"~#	c #ED6464",
"{#	c #EB6363",
"]#	c #E6DADA",
"^#	c #FC0707",
"/#	c #F72929",
"(#	c #E8E6E6",
"_#	c #EB7F7F",
":#	c #EA6969",
"<#	c #D5BBBB",
"[#	c #F53A3A",
"}#	c #E0D9D9",
"|#	c #E1D0D0",
"1#	c #F62D2D",
"2#	c #E78080",
"3#	c #D69A9A",
"4#	c #DACACA",
"5#	c #DDDBDB",
"6#	c #E5A6A6",
"7#	c #FE0202",
"8#	c #FB1919",
"9#	c #F24D4D",
"0#	c #E78C8C",
"a#	c #DED4D4",
"b#	c #E39F9F",
"c#	c #F53232",
"d#	c #E79A9A",
"e#	c #EE6363",
"f#	c #F53838",
"g#	c #E69393",
"h#	c #D2CDCD",
"i#	c #F54545",
"j#	c #FB1212",
"k#	c #E3A6A6",
"l#	c #DEA6A6",
"m#	c #F05252",
"n#	c #DCB1B1",
"o#	c #D8A8A8",
"p#	c #FC0F0F",
"q#	c #EF6666",
"r#	c #CBC7C7",
"s#	c #D9D6D6",
"t#	c #DB9898",
"u#	c #F53737",
"v#	c #F81818",
"w#	c #F04E4E",
"x#	c #E68E8E",
"y#	c #CBC3C3",
"z#	c #EB8E8E",
"A#	c #FD6E6E",
"B#	c #FA2D2D",
"C#	c #FE0707",
"D#	c #FB9B9B",
"E#	c #E7E1E1",
"F#	c #F0EAEA",
"G#	c #E8B6B6",
"H#	c #E2B6B6",
"I#	c #FD1818",
"J#	c #FC5050",
"K#	c #E4CFCF",
"L#	c #FD0E0E",
"M#	c #FADCDC",
"N#	c #DFDDDD",
"O#	c #EB8989",
"P#	c #F88080",
"Q#	c #D4D1D1",
"R#	c #EF6262",
"S#	c #F99696",
"T#	c #EA8B8B",
"U#	c #FBA5A5",
"V#	c #DBD9D9",
"W#	c #E3C4C4",
"X#	c #FD9F9F",
"Y#	c #F76666",
"Z#	c #F72626",
"`#	c #FE0909",
" $	c #F09696",
".$	c #DBD6D6",
"+$	c #E4E0E0",
"@$	c #E8BDBD",
"#$	c #F26B6B",
"$$	c #F74545",
"%$	c #DDC8C8",
"&$	c #EE8282",
"*$	c #F26363",
"=$	c #F36060",
"-$	c #F46363",
";$	c #F14848",
">$	c #FD0A0A",
",$	c #F83131",
"'$	c #E3B8B8",
")$	c #DCC1C1",
"!$	c #FC1010",
"~$	c #D9B0B0",
"{$	c #F64040",
"]$	c #E48282",
"^$	c #F06161",
"/$	c #EADBDB",
"($	c #EB6060",
"_$	c #EAC1C1",
":$	c #DDD8D8",
"<$	c #DAADAD",
"[$	c #F16464",
"}$	c #FD0202",
"|$	c #F14444",
"1$	c #D3C3C3",
"2$	c #EC8282",
"3$	c #F1CCCC",
"4$	c #F44343",
"5$	c #F3DFDF",
"6$	c #E2CDCD",
"7$	c #F92727",
"8$	c #FCA9A9",
"9$	c #EF9A9A",
"0$	c #E99393",
"a$	c #EE9999",
"b$	c #F73939",
"c$	c #F5B5B5",
"d$	c #E89898",
"e$	c #F73B3B",
"f$	c #FBE7E7",
"g$	c #F72F2F",
"h$	c #FE0101",
"i$	c #F84B4B",
"j$	c #F1C0C0",
"k$	c #F43E3E",
"l$	c #FB0D0D",
"m$	c #E0CBCB",
"n$	c #DFDCDC",
"o$	c #E3BBBB",
"p$	c #F91E1E",
"q$	c #F64D4D",
"r$	c #EFDFDF",
"s$	c #E0C8C8",
"t$	c #FC1414",
"u$	c #E0DEDE",
"v$	c #FB1111",
"w$	c #DFDADA",
"x$	c #F25353",
"y$	c #ED7A7A",
"z$	c #EF6F6F",
"A$	c #E99292",
"B$	c #F67171",
"C$	c #EE6666",
"D$	c #E1D8D8",
"E$	c #ED6666",
"F$	c #EB8484",
"G$	c #DCD1D1",
"H$	c #F73434",
"I$	c #E1D1D1",
"J$	c #F71414",
"K$	c #E4A6A6",
"L$	c #FC0D0D",
"M$	c #F18989",
"N$	c #DEDADA",
"O$	c #E79898",
"P$	c #E1CCCC",
"Q$	c #F63D3D",
"R$	c #F73232",
"S$	c #E0BABA",
"T$	c #E4B2B2",
"U$	c #F63939",
"V$	c #E98F8F",
"W$	c #EC7C7C",
"X$	c #F13535",
"Y$	c #E69E9E",
"Z$	c #D4BCBC",
"`$	c #D4A0A0",
" %	c #E7DBDB",
".%	c #D8B1B1",
"+%	c #F91515",
"@%	c #D57F7F",
"#%	c #EE9696",
"$%	c #D8BFBF",
"%%	c #F43535",
"&%	c #F63636",
"*%	c #E3C3C3",
"=%	c #E4AAAA",
"-%	c #FA1616",
";%	c #F72D2D",
">%	c #F24848",
",%	c #F16060",
"'%	c #E4B8B8",
")%	c #F05E5E",
"!%	c #F92222",
"~%	c #FB1313",
"{%	c #EF5151",
"]%	c #E1D4D4",
"^%	c #ED7979",
"/%	c #FA1515",
"(%	c #ED7575",
"_%	c #EF7878",
":%	c #F33636",
"<%	c #FD1212",
"[%	c #F05D5D",
"}%	c #E2D0D0",
"|%	c #EF6464",
"1%	c #FA2222",
"2%	c #FE0E0E",
"3%	c #F5B6B6",
"4%	c #FD3737",
"5%	c #F83030",
"6%	c #F34949",
"7%	c #FB3030",
"8%	c #F06262",
"9%	c #E1B9B9",
"0%	c #E2CECE",
"a%	c #E2C3C3",
"b%	c #E5B7B7",
"c%	c #E5AFAF",
"d%	c #E1B6B6",
"e%	c #E3C5C5",
"f%	c #DFD1D1",
"g%	c #E0C9C9",
"h%	c #E1C3C3",
"i%	c #E3C6C6",
"j%	c #DEC5C5",
"k%	c #E1CFCF",
"l%	c #E0C1C1",
"m%	c #E2C6C6",
"n%	c #DEC0C0",
"o%	c #DFC1C1",
"p%	c #E1CACA",
"q%	c #E0CACA",
"r%	c #DFC0C0",
"s%	c #DBBFBF",
"t%	c #E0C3C3",
"u%	c #E0DFDF",
"v%	c #DAD4D4",
"w%	c #DECACA",
"x%	c #DCBCBC",
"y%	c #E3AEAE",
"z%	c #E9BDBD",
"A%	c #EED2D2",
"B%	c #DBCECE",
"C%	c #DDDCDC",
". . . . . . . . . . + . . . . . . . . . . . . + . . . . . . . . . + . . . + . . . . . . . + + + . . . . . . + . @ # . . . . . . ",
"$ % & * = * # # - . . + . . . . + . . . . . + . & . . + . . . . . . & = + . + . . . . + . ; > # . . + . . . . . , ' % . + + . . ",
") ! ) ~ { ] ^ / ( # + . & _ * + . . . . . . . # : < & . . . . . . . [ } ; $ . . . . . . . | 1 2 + . . . . . . & 3 4 5 . . . . . ",
"6 7 8 9 0 a b c d ( 6 # < e f _ # = = = = = - g h ' i # = = = = = . j k l m = = = = = # n o p q ) # = = = = n r s t h u # # = = ",
"v w x u i y z A v [ B C 7 D u u D C C C C C D B c 5 E D C C C C C y F G H I D C C C C C ) f J q f C C C C C C 9 5 K L M D C C C ",
"$ M ; N M O : A m P Q y C E > 2 D y y y y y 7 ) R ( 2 S y y y y y 7 a 5 A T B y y y y y D _ U V W [ 7 y y y y 9 R X Y e > 7 y y ",
"i Z ` ! H Z  ...2 2 Q y y [ +.I S y y y y y y C @.8 #.[ y y y y y 9 E ~ $.#.( y y y y 7 %., &.*., ( 7 y y y y C =.-.;. .( D y y ",
"% u %.u u P %.v r >.C y B  .g u D y y y y y 9 g ~ ,.'.C y y y y y ).e !.~.2 > y y y y y ).{.].^.M S 7 y y y 9 R /.(._.f [ 7 y y ",
". :.x A <.2 B 2 [.B C y : }.M d 7 y 7 y y y ) M h q ( y y 7 y y y ).|.1.!.M C y 7 y y y Q Z 2.3.:.C y 7 y y 9 > 4.5.6.7.E D y 7 ",
") =.w , m P ; T B w B y C |.W d S D y y y y ) f 8.9.0.C Q y y y y ).a.6.b.{ E y y y y y y ] ].c.X +.7 y 7 y y 7 d.e.f.~ A C y y ",
"@ : m [ Q N u u i [ B D B g.|.0.w C D D D D y b h.i.U b y D D D D m j.k.l.m.+.u 7 D D D 9 3 n.n.o.'.> B D D D D p.].q._.` [ D D ",
"r f A B ,.*.N @.D %.n + - ] r. .) r . + + + . D s.b.=.I [.n + + + . a.t.u.v.T C % . + . . g.w.x._.8 S 6 + + . = } y.z.A.T D 0 + ",
"+ E c N e ).y ( I b Q y C W { F a r 7 y y y 9 : h.B.H > x ).7 y y ; ,.C.D.E.b [.) y y y ).l F.G.k H.) m y y 9 Q G I.F.8., ) m y ",
") : S z 8 v [.g ).>.C y w J.c M > [ B y y 7 ) ` h p ! A y B C y y z 3 t K.A.5 B : C y y x l L.M.9.N >.[ > y y B N.O.F.P.|.>.Q P ",
"x ( m I u 2 m [ < u C y S @.|.` : >.B C y y ) f Q.!.'  .B E >.y 7 ).} z.R.S.8 > [ S > 9 %.T.U.(.V./ : S >.[ 7 2 P.W.t.P.X.A >.: ",
"= F f ~.}.2 ( 8 S w B y d X.O b E B [ u C 7 ).p././.$.w P D E > S 2 Y.Z.`.~ '.P S B B %.:.h.z.s.^.T I > u 9 ) ,  +.+l.o.8 : E C ",
"[.++7 '.T U >  .) B C y ` ^ :.0.d B u S B 7 y } L k Z , [ 7 B y m I @+#+$+%+7.R y C y m 5 L t &+L 7.E Q C y 7 ..-.U.*+i.] d 7 y ",
"0 i [.=+> S v 9 0 u C 9 b X.W j.'.> ) y y y B }.J 1 -+,.R C 7 y y D V 1.l.Y s b u 9 y 9 I ;+>+,+o.o.F S C y y ` '+q.R.Q.p.:.> D ",
"r R '., X 5 b ` D R Q y B j.X.W F >.B 7 y 7 ; r._.1 ^ j ` [ C y y x d.k.h.Y o T R 7 D ) +.)+!+R.N.N.:.P [ y y 0.h.~+c.J l {+R u ",
"=+,.x E 0.C ( f D w S Q A r.{ j.A : [ Q D 7 : s _.P.]+{ A > Q D y w L ^+/+^.| @.P u C 9 M E.(+^+K p.H.P [ 7 S W /+M.c.P.T.c d >.",
"9 T : E g b : N 7 9 6 % 7 a.c }.I u ; <.% * _+N )+`.N.r.I m v =+# x T.p :+A.X , : a < n >.^.<+<+Y.]+| B 7 < 6 +.-.[+t }+p.{ P 7 ",
"= w > o O 0.P d m P ).a a O :.O ` Q m i v v _+O ;+%+;.{ :.y z x [.m V s.|+-+l {+[ 9 r <.w N.l.:+Y T.$.5 x ; [.+.1+2+-.S.| ~ A y ",
"a ' R :.F f ..,.R P Q y 2 e b I 2 ) D B D y ( p.p.3 X.}.[ S S D m O i.1+v.X O 8 D m 7 B / s.^+3+j U O B 9 u >.~ b.2.-.d.' , +.B ",
"@ 5 r ~.+.9 ( b i u C C f 0.0.b ( >.D > C m M ~ T.l r.N A B > C ( O L A.Q.4+j.#.P S Q A 3 @+ +&+d.J.7.d R B +.} 1 t.1.m.a.{ 2 : ",
"$ / . C u > +.d C I Q u f F M I d >.> y C 7 8 ' Z ~./  .2 P P y w a.s 9.Q.V H F 2 [ 9 w o J ^+5+]+3 @.` Q Q #.4+`.[+:+^.^ |.'.[ ",
"$ ]+_+#.. ..X.;.g E D : M f ` I I 2 d u C 7 N / s g.,.$.2 P >.S P N 4.`.L v.X.O I R u '.U 6+3./.! / 5 A b E b G Q.K.h.V U { F g ",
"+ =+. - <._+# _+- u S : A g  ., #.+.E u Q [ T Z ! j { 0.#.w : B d X.4+h {.| e T I A ( : =.&.p P.l O }.f w >.T V Y 7+`.;+j N '.I ",
"$ } . ..7... .$.>.P >.[ `  ., M ` : ( > u S O ^ X H j.T ..w >.D P | s {.-+g.c H.f E Q +.] ++q G s X J...d u M j i./+o.~.| c :.E ",
"& 7.* 0.|.[ ) 7 R F D S d b b f w u >.D 7 u , H.e ,.F :.I P B D d 5 =.-+]+^ :.8 #.P R '.j.Z h 9.++| H., ` S @.~.)+P.m.p.=./ #.'.",
"& ..= %.2 / @.#.i C a %.u u >.u u D ) ) ; %.+.M j.J.b 0.R > y ; u ( {+)+l U F  .: Q > +.T l ;+j o H O A : S @.,.;+m.4+^ }.J. .P ",
"$ ^ - M ) J.@.r.>.B z D P S R E ( P C ).; a B :.J.b f f A +.u D u +.5 ~.g. .g M 2 ( u w $.g.Z p.] :.d , F Q ` X ++]+p.] j.}.f ( ",
"$ g.% M %.)._+7 r ( B 7 B [ [ R >.B y y C 7 > T { b b 5 f u C u R 5 0.~.j.@.I @.#.B Q b r.] U *.j.N ..@.f Q ..Z 4+U ,.j 5 H.F ` ",
"+ [ % : ).x z M z S > 7 C u [ > S S B S B : Q ..O I ` 8 2 Q u S +., f 7.M T ..8 R P u +.N W |.T.F O 2 M P P '.{ *.j V j g 0.` w ",
". . 0 W 5 5 B M ).B B > >.D B C B C S D D C > d ` I A ` Q d >.m : ` d |.0.H.J.2 +.2 Q : }.j.{+~ M b H.S '.'.g M T.o ! j...5 I R ",
". . 0 | ~.=.: ( z 2 B S ( C [ ( : >.: > S y I E 2 g R R E B P > '.M 2 X.M M O S '.u >.g , W H.j ..O '.#.B P J.A j.{+]+{ '.J.B [ ",
". . - [.0 <.% n . >.Q Q [ > >.( >.> S C D R ( Q ` d w [ A R S [ [ 2 I c f 0.0.A g Q : d  .W H.c $.a.B N w 2 5 {+|.,.3 H.0.f ( ..",
". . _+~ / X.{ 8 7 >.S > >.[ >.P B > B > B ( w w +.d P P P : : ( P f f a.w ..u b I >.I P :.j.J.5 5 O 2 : P >.O #.N |.U c f R >.[ ",
". . * d : =.c T , M ( D D >.B D S > C 7 S P I ( b P b [ R Q C > R ` w }.I M d b d Q P #.0.@.H.5 , F b w >.f F W N N }.8 8 g ..B ",
". . n ) 0 2 > [ 0 Q [.[.z m a m ; ).v <.[.<.C a P < w <.E v u z x P x ..r I =+I i R z b w : f > g C y 7 B Q >.F g 8 F b S R C Q ",
". . * #.> f @.*.P D [.Q ; 7 7 8+9+0+a+b+S ; P 9 d S D : c+d+x > P 2 [ e+f+g+h+i+B ) 2 w ` g M d j+f+k+l+y ` R  .m+n+o+p+q+g S 9 ",
". . <.;+f P w S x +.[ m D r+s+t+u+v+w+x+y+z+: 7 P B S A+B+C+B R > w >.D+E+F+G+H+#.7 F ) 2 I b I+J+K+L+M+: : N+O+P+Q+R+S+T+U+%.b ",
". . % @.2 ` Q y 0 S C %.V+W+X+Y+Z+`+ @.@+@@@D y E S #@$@%@&@D >.d P Q *@=@-@%@;@+.S [ R f '.A >@%@,@'@)@E !@~@{@]@^@/@(@.@_@:@A ",
". . =+$.C P B f x u Q <@[@}@|@B ) y D 1@2@3@m y u u 4@5@6@7@8@).I ( Q '.S 9@0@a@b@E ; ` '.R c@d@%@e@%.; f@g@h@i@d T >.0.j@k@l@f ",
". . # g e =.| j +.d >.m@n@o@[ Q E D S p@q@r@C C y s@t@u@v@w@x@Q P >.[ I y@z@A@B@C@2 S 2 u D@E@F@%@G@B w H@I@J@R >. .( u K@L@M@: ",
". . - C w P d B %.I >.N@O@P@Q@7 B 7 B > Q Q > D ; R@S@T@U@B@V@> 7 Q >.9 W@X@Y@.@Z@m : ( `@ #.#+#9@@#7 E ##.@$#%#E #.[ Q : C > R ",
". . # w +.d S M x B Q &#*#%@S@=#-#;#B S Q > Q y >#,#'#( )#.@!#> B 7 S C ~#{#]#^#/#(#B S _#:#<#I@[#}#9 [ |#1#%@X@2#3#4#7 : u [ D ",
". . - +.] j g.X.A ` u 5#6#[#7#.@8#9#0#a#Q B C u b#c#C C d#.@e#S >.Q u R f#g#h#i#j#k#>.l#m#n#o#p#q#r#A B s#t#u#.@%@v#w#x#y#+.>.u ",
". . # +.2 w d 2 m w C # n y@z#A#B#%@C#D#E#D % F#[#G#n v H#I#J#K#D * a u L#M#N#O#%@P#Q#R#S#v T#O@U#V#[ * # > W#X#Y#Z#%@`# $.$# =+",
". . * f d E : O x ; =+; )._ _++$@$#$6@$$%$%.z &$.@*$=$-$;$>$,$'$).v 7 )$!$).) ~$%@{$]$^$/$7 ($.@_$B >.).y R y ; :$<$[$}$|$1$%.> ",
". . & Q / o `  .C +.D 2$N#%.y 7 %.3$1@4$5$i 6$7$8$9$0$a$D#b$9@c$_ 7 9 d$e$7 r f$g$h$i$j$D 7 k$l$m$=+n n$t+l+i D C B o$p$q$r$9 ) ",
". . = @.e $.b T 9 [ s$t$u$Q 7 y y q@v$[@w$7 x$y$9 Q 7 Q 9 z$%@A$y y D B$C$7 7 D$E$.@F$) y G$5@H$I$Q 7 W#J$x 7 7 C > K$L$M$N$>.f ",
". . = w y > C H.x S O$.@z#Q y 7 P$Q$R$S$B T$U$Q 7 7 y y y V$%@W$C y D X$Y$y y z+Z$`$ %Q 7 .%+%q#7 y y @%.@#%7 C : $%%%&%*%D @.S ",
". . & > @.( @.g [.> =%H$-%;%>%U$;%,%'%y )%!%~%{%B B y ]%^%d@^#/%(%_%:%<%1@[%7 D 7 @ u }%|%1%2%d@[#}#D 3%4%-%5%6%b$7%8%9%y S x 6 ",
"+ $ < ] I W +.` B A .$0%a%b%c%d%e%f%B D g%h%i%j%7 : y u$k%l%m%a%}%}%n%y@o%p%7 D : C C u$q%r%s%t%i%u%B v%w%x%b%y%z%A%B%Q 9 w =+S ",
"+ %.- B ; [ ).9 = S Q 7 D y z+7 7 C Q 7 7 7 7 Q Q 7 7 7 D Q C Q 7 D 7 7 Q 7 7 B Q C Q 7 7 C C 7 7 7 B D > C 7 C%u Q C D 7 u Q C ",
"+ y 0 N E r.{+3 2 >.; a v D 7 z a v x a a a [.D D D 9 a a a v x a v 7 Q 7 9 a a a v x a x 7 Q C 9 v z a [.a a x 7 7 7 ) v [.z z ",
"+ 9 # ` x [ O ..>.P _+% =+<.r 6 % % % 0 0 % % < <.<.< % % % % % % 0 [.7 ; r % % % % % % [.C 7 Q i 0 % % % % =+; C y D v 0 % % % ",
"+ 9 n +.9 R D w r S B D 7 6 _+) B D D D D Q Q <._ _ [.B D D D Q Q 7 <._ _ <.D D D D D C y y C m a C D D D D C Q 7 C ) %.7 C D D ",
". y = b u j.J.` E  .C 9 ) y y 9 y ) ) ) ) y ) S y y y D ) ) ) 9 9 9 %._+9 D 9 ) ) ) ) y ).=+= =+%.7 B ) ) 9 9 r * = * 9 7 ) 9 y ",
"< <.0 }.g | {+:.[ F ` '.#.#.#.#.#.#.#.#.#.F '.O A b #.f #.#.#.#.#...f F :.F A #.#.#.#.f f I R I ..#.8 ` #.#...f 2 d 2 #.f #.g C ",
"@ & $ r =+r _ 6 y D f , < < < < < < < < _ ) 2 [./ D _+< < < < < < < _+z > E {+6 < < < < < < r < r =+7.E _+< < r r r r < < < _ # ",
". . . . . . . . <.H.I ` . . . . . . . . . - R 9 T C . . . . . . . . . . j.S , . . . . . . . . . . . #.>.. . . . . . . . . . . . ",
". . . . . . # y 7 ^ >.H & . . . . . . . z > H g %.X.. . . . . . . . P - j Q {+6 . . . . . . . . =+S S j . . . . . . . . . . . . ",
". . . . . . + . r 0 _+=++ . . . . . . . . = y 0 x & . . . . . . . . . 6 9 % i . . . . . . . . . + . x @ . . . . . . . . . . . . "};
