#define ams_width 64
#define ams_height 64
static char ams_bits[] = {
 0x08,0x08,0xc0,0x00,0x0e,0x70,0x80,0x07,0xd4,0xa8,0xc0,0x02,0x16,0xf0,0x00,
 0x07,0x00,0x10,0xd2,0x49,0x4e,0x72,0x92,0x0b,0x80,0x0a,0x80,0x00,0x16,0xe0,
 0x20,0x47,0x2c,0x50,0xc9,0x25,0x4e,0x79,0x82,0x27,0x52,0x29,0x50,0x81,0x16,
 0x70,0x91,0x0b,0x00,0x94,0xc4,0x14,0x4e,0x72,0xc4,0x07,0x90,0x28,0xc0,0x02,
 0x1f,0xf0,0x81,0x57,0x4c,0x10,0x60,0x01,0x06,0x78,0x80,0x03,0x00,0x28,0x89,
 0x49,0xbe,0xe2,0x92,0x0f,0x80,0x82,0xe0,0x02,0x07,0x78,0xc1,0x25,0x5c,0x34,
 0x48,0x51,0x5e,0xf1,0x94,0x0b,0x80,0x48,0xa1,0x05,0x0e,0x74,0x81,0x2f,0x00,
 0x10,0xc8,0x92,0x5e,0x71,0xa5,0x17,0x54,0xa5,0xa2,0x08,0x2b,0x78,0xc1,0x4b,
 0x48,0x10,0x40,0x43,0x1e,0x72,0x91,0x17,0x00,0x49,0xa8,0x00,0x57,0xf0,0x82,
 0x0d,0x24,0x00,0x42,0x13,0x0d,0xb8,0xc0,0x13,0x54,0x95,0xd0,0x08,0x55,0x79,
 0x45,0x47,0x24,0x20,0x44,0x43,0x2e,0xa0,0x91,0x1b,0x80,0x44,0x50,0x04,0xab,
 0x7a,0xca,0x27,0x08,0x11,0x85,0xa3,0x1c,0xa8,0x22,0x15,0x50,0x24,0x50,0x14,
 0xab,0xf0,0xc4,0x57,0x02,0x88,0x80,0x05,0x16,0x52,0x43,0x15,0x80,0x20,0x24,
 0x80,0x2a,0xbc,0xa0,0x0b,0x58,0x08,0x41,0x25,0x95,0x50,0xaa,0x2b,0xa4,0x12,
 0x94,0x80,0x4a,0xb4,0xc0,0x04,0x00,0x44,0x41,0x94,0x2a,0x55,0x55,0x57,0x28,
 0x11,0x94,0x42,0x15,0xb4,0xa1,0x15,0x42,0x84,0x20,0x11,0x4a,0xc9,0x4a,0x25,
 0x00,0x20,0x80,0x84,0x14,0x28,0xa0,0x4a,0x08,0x09,0x29,0x21,0x82,0x54,0x25,
 0x13,0xa8,0x20,0x04,0x92,0x2c,0x52,0x52,0x45,0x10,0x08,0xa1,0x04,0x42,0x48,
 0x21,0x19,0x80,0x22,0x04,0x90,0x94,0x94,0x44,0x25,0x28,0x08,0x51,0x25,0x05,
 0x22,0x51,0x09,0x50,0x22,0x08,0x00,0x50,0xa8,0x44,0x25,0x80,0x00,0x82,0x94,
 0x0a,0x12,0x10,0x01,0x00,0x88,0x20,0x00,0x20,0x88,0x42,0x14,0x50,0x21,0x80,
 0x88,0x44,0x21,0x10,0x41,0x08,0x04,0x05,0x22,0x10,0x42,0x45,0x24,0x00,0x41,
 0xa0,0x00,0x85,0x10,0x20,0x09,0xa8,0x08,0x15,0x3a,0x50,0xe5,0x8a,0x20,0x50,
 0x42,0x88,0xa8,0x64,0x29,0x25,0x0a,0x00,0x08,0x06,0x54,0x50,0x29,0x0a,0x40,
 0x90,0x00,0x8a,0x50,0xa8,0x14,0x24,0x09,0x68,0x24,0x0d,0x2c,0xa5,0x28,0x01,
 0x10,0x00,0x01,0x29,0x61,0x68,0xd2,0x20,0x05,0x00,0x48,0x8a,0x2c,0x15,0xa8,
 0x02,0x50,0xb8,0x82,0x28,0x52,0x62,0xa1,0x92,0x04,0x40,0xa8,0x0c,0x52,0x19,
 0x44,0x05,0x22,0x00,0x40,0xb5,0x64,0x29,0x91,0x92,0x00,0x28,0x11,0x0a,0xa2,
 0x58,0x04,0x05,0x22,0x80,0xa0,0x28,0x42,0x28,0x22,0x42,0x00,0x28,0x0a,0x94,
 0x62,0x2a,0x8c,0x11,0x0a,0x80,0x58,0xaa,0x2a,0x2a,0xd2,0x04,0x20,0x50,0x00,
 0x01,0x80,0x80,0x08,0x50,0x01,0x28,0x49,0x28,0x25,0x28,0x00,0x05,0x28,0x00,
 0x00,0x02,0x80,0x84,0x52,0x20,0x01,0x00,0x22,0x80,0x08,0x00,0x00,0x00,0x00,
 0x78,0x00,0x10,0x00,0x00,0x00,0x84,0x08,0x80,0x25,0x15,0x64,0xa5,0x2a,0x31,
 0xa2,0x00,0x00,0x00,0x80,0x00,0x04,0x00,0x00,0x00,0x01,0x08,0x20,0x00,0x00,
 0x00,0x00};
