/* XPM */
static const char * sams_xpm[] = {
"64 64 343 2",
"  	c None",
". 	c #FFFFFF",
"+ 	c #E4E4E4",
"@ 	c #AAAAAA",
"# 	c #A1A1A1",
"$ 	c #A8A8A8",
"% 	c #BBBBBB",
"& 	c #AFAFAF",
"* 	c #CDCDCD",
"= 	c #909090",
"- 	c #B4B4B4",
"; 	c #CCCCCC",
"> 	c #474747",
", 	c #4A4A4A",
"' 	c #7D7D7D",
") 	c #BDBDBD",
"! 	c #434343",
"~ 	c #161616",
"{ 	c #454545",
"] 	c #C7C7C7",
"^ 	c #414141",
"/ 	c #131313",
"( 	c #1F1F1F",
"_ 	c #A9A9A9",
": 	c #6A6A6A",
"< 	c #000000",
"[ 	c #C8C8C8",
"} 	c #EAEAEA",
"| 	c #9E9E9E",
"1 	c #646464",
"2 	c #5A5A5A",
"3 	c #676767",
"4 	c #A6A6A6",
"5 	c #858585",
"6 	c #B1B1B1",
"7 	c #F2F2F2",
"8 	c #878787",
"9 	c #7B7B7B",
"0 	c #C9C9C9",
"a 	c #EBEBEB",
"b 	c #F1F1F1",
"c 	c #0F0F0F",
"d 	c #7C7C7C",
"e 	c #D8D8D8",
"f 	c #050505",
"g 	c #4B4B4B",
"h 	c #B5B5B5",
"i 	c #5B5B5B",
"j 	c #272727",
"k 	c #9F9F9F",
"l 	c #EEEEEE",
"m 	c #949494",
"n 	c #121212",
"o 	c #636363",
"p 	c #D5D5D5",
"q 	c #F9F9F9",
"r 	c #FBFBFB",
"s 	c #D3D3D3",
"t 	c #C6C6C6",
"u 	c #CBCBCB",
"v 	c #C0C0C0",
"w 	c #D9D9D9",
"x 	c #9A9A9A",
"y 	c #A3A3A3",
"z 	c #CACACA",
"A 	c #D7D7D7",
"B 	c #3D3D3D",
"C 	c #101010",
"D 	c #8C8C8C",
"E 	c #3A3A3A",
"F 	c #090909",
"G 	c #BABABA",
"H 	c #4D4D4D",
"I 	c #D2D2D2",
"J 	c #888888",
"K 	c #5F5F5F",
"L 	c #EFEFEF",
"M 	c #FEFEFE",
"N 	c #F6F6F6",
"O 	c #F5F5F5",
"P 	c #F7F7F7",
"Q 	c #939393",
"R 	c #C3C3C3",
"S 	c #CFCFCF",
"T 	c #D0D0D0",
"U 	c #515151",
"V 	c #8D8D8D",
"W 	c #373737",
"X 	c #303030",
"Y 	c #818181",
"Z 	c #595959",
"` 	c #C5C5C5",
" .	c #979797",
"..	c #B0B0B0",
"+.	c #ACACAC",
"@.	c #ADADAD",
"#.	c #ABABAB",
"$.	c #999999",
"%.	c #A4A4A4",
"&.	c #C2C2C2",
"*.	c #525252",
"=.	c #7A7A7A",
"-.	c #B6B6B6",
";.	c #383838",
">.	c #0E0E0E",
",.	c #919191",
"'.	c #B7B7B7",
").	c #444444",
"!.	c #060606",
"~.	c #B8B8B8",
"{.	c #8E8E8E",
"].	c #B3B3B3",
"^.	c #A7A7A7",
"/.	c #9B9B9B",
"(.	c #A2A2A2",
"_.	c #BCBCBC",
":.	c #B9B9B9",
"<.	c #313131",
"[.	c #616161",
"}.	c #1B1B1B",
"|.	c #747474",
"1.	c #343434",
"2.	c #959595",
"3.	c #292929",
"4.	c #2F2F2F",
"5.	c #6E6E6E",
"6.	c #7E7E7E",
"7.	c #484848",
"8.	c #020202",
"9.	c #A5A5A5",
"0.	c #BEBEBE",
"a.	c #BFBFBF",
"b.	c #080808",
"c.	c #0D0D0D",
"d.	c #969696",
"e.	c #0C0C0C",
"f.	c #333333",
"g.	c #545454",
"h.	c #D4D4D4",
"i.	c #AEAEAE",
"j.	c #737373",
"k.	c #898989",
"l.	c #3E3E3E",
"m.	c #7F7F7F",
"n.	c #363636",
"o.	c #696969",
"p.	c #575757",
"q.	c #727272",
"r.	c #656565",
"s.	c #F8F8F8",
"t.	c #C1C1C1",
"u.	c #CECECE",
"v.	c #6D6D6D",
"w.	c #E1E1E1",
"x.	c #2A2A2A",
"y.	c #0A0A0A",
"z.	c #4C4C4C",
"A.	c #1D1D1D",
"B.	c #252525",
"C.	c #E2E2E2",
"D.	c #DFDFDF",
"E.	c #FCFCFC",
"F.	c #ECECEC",
"G.	c #EDEDED",
"H.	c #DEDEDE",
"I.	c #787878",
"J.	c #D6D6D6",
"K.	c #606060",
"L.	c #232323",
"M.	c #191919",
"N.	c #151515",
"O.	c #838383",
"P.	c #DBDBDB",
"Q.	c #DADADA",
"R.	c #E5E5E5",
"S.	c #C4C4C4",
"T.	c #282828",
"U.	c #5C5C5C",
"V.	c #9C9C9C",
"W.	c #1E1E1E",
"X.	c #B2B2B2",
"Y.	c #9D9D9D",
"Z.	c #040404",
"`.	c #8F8F8F",
" +	c #E0E0E0",
".+	c #666666",
"++	c #555555",
"@+	c #565656",
"#+	c #808080",
"$+	c #A0A0A0",
"%+	c #777777",
"&+	c #353535",
"*+	c #757575",
"=+	c #494949",
"-+	c #242424",
";+	c #070707",
">+	c #2D2D2D",
",+	c #686868",
"'+	c #989898",
")+	c #1A1A1A",
"!+	c #4E4E4E",
"~+	c #848484",
"{+	c #868686",
"]+	c #D1D1D1",
"^+	c #1C1C1C",
"/+	c #626262",
"(+	c #767676",
"_+	c #181818",
":+	c #E9E9E9",
"<+	c #929292",
"[+	c #464646",
"}+	c #6F6F6F",
"|+	c #707070",
"1+	c #E3E3E3",
"2+	c #DDDDDD",
"3+	c #E7E7E7",
"4+	c #5D5D5D",
"5+	c #262626",
"6+	c #5E5E5E",
"7+	c #141414",
"8+	c #202020",
"9+	c #585858",
"0+	c #505050",
"a+	c #828282",
"b+	c #424242",
"c+	c #535353",
"d+	c #393939",
"e+	c #2E2E2E",
"f+	c #3C3C3C",
"g+	c #8A8A8A",
"h+	c #3F3F3F",
"i+	c #404040",
"j+	c #797979",
"k+	c #8B8B8B",
"l+	c #2C2C2C",
"m+	c #4F4F4F",
"n+	c #6C6C6C",
"o+	c #F0F0F0",
"p+	c #DCDCDC",
"q+	c #E8E8E8",
"r+	c #717171",
"s+	c #FDFDFD",
"t+	c #E6E6E6",
"u+	c #F3F3F3",
"v+	c #FAFAFA",
"w+	c #D98E7C",
"x+	c #D69E90",
"y+	c #E06F53",
"z+	c #E6502B",
"A+	c #EA4117",
"B+	c #D1998B",
"C+	c #DB5737",
"D+	c #DD7F68",
"E+	c #C7B4B0",
"F+	c #CA7F6C",
"G+	c #E3603F",
"H+	c #DD9280",
"I+	c #E05D3D",
"J+	c #D48976",
"K+	c #E1A99B",
"L+	c #CE7059",
"M+	c #DB6A4E",
"N+	c #F4F4F4",
"O+	c #D67962",
"P+	c #E57559",
"Q+	c #E0836B",
"R+	c #E0CDC9",
"S+	c #E36040",
"T+	c #D68B79",
"U+	c #B5A29E",
"V+	c #E56241",
"W+	c #D1735C",
"X+	c #E39886",
"Y+	c #E1BCB3",
"Z+	c #ECC7BE",
"`+	c #E8522D",
" @	c #EA6746",
".@	c #E68972",
"+@	c #D39B8D",
"@@	c #E5502A",
"#@	c #F0CBC1",
"$@	c #E6765A",
"%@	c #C1897B",
"&@	c #E66343",
"*@	c #D38875",
"=@	c #E68871",
"-@	c #E2A99B",
";@	c #E44E29",
">@	c #D3AEA5",
",@	c #F1CBC2",
"'@	c #DD8068",
")@	c #D09789",
"!@	c #E17155",
"~@	c #E46140",
"{@	c #CEBBB7",
"]@	c #D0BDB9",
"^@	c #CBA69D",
"/@	c #C99183",
"(@	c #EBA08D",
"_@	c #DC7E67",
":@	c #DF5C3C",
"<@	c #ED7D61",
"[@	c #D1BFBA",
"}@	c #6B6B6B",
"|@	c #DE6E52",
"1@	c #D9694D",
"2@	c #D1BEB9",
"3@	c #E15E3D",
"4@	c #CCBAB5",
"5@	c #E88A73",
"6@	c #E9532E",
"7@	c #E8785C",
"8@	c #E67559",
"9@	c #E3AB9D",
"0@	c #E96545",
"a@	c #E79C8A",
"b@	c #E76443",
"c@	c #D2C0BB",
"d@	c #E6D3CF",
"e@	c #E07054",
"f@	c #E0A799",
"g@	c #E7AFA1",
"h@	c #E5AD9F",
"i@	c #D79F91",
"j@	c #E2AA9C",
"k@	c #E86544",
"l@	c #E0BBB2",
"m@	c #E9B1A3",
"n@	c #DF6F53",
"o@	c #EA795D",
"p@	c #E4866F",
"q@	c #DEA698",
"r@	c #D4AFA5",
"s@	c #E47458",
"t@	c #D49C8E",
"u@	c #D6C3BF",
"v@	c #DB907E",
"w@	c #C9B6B1",
"x@	c #E35F3F",
"y@	c #EDB5A7",
"z@	c #F4BBAD",
"A@	c #D89F91",
"B@	c #E66242",
". + @ # $ % & % * * * = = - * * * * * * * ; > , ' ) * * * * * * * ! ~ { ] * * * * * * * ^ / ( _ * * * * * * * : < < : [ * * * } ",
". | 1 2 3 4 5 6 7 7 7 8 9 0 a 7 7 7 7 7 7 b ! c d e 7 7 7 7 7 7 7 2 f g h 7 7 7 7 7 7 7 i < j k l 7 7 7 7 7 7 m < n o p 7 7 7 q ",
". r s t u ; p v w w p x y z A w w w w w w p B C D 0 w w w w w w w E F E G A w w w w w w H < f y I w w w w w w J < F K t w w w L ",
". M N O 7 q P % * * ] @ Q R S * * * * * * T U E V R * * * * * * * W < ! & z * * * * * * o < X D u * * * * * * Y < < Z ` * * * } ",
". [  .Q ..V +.@.* * * #.$.%.R * * * * * * &.*.B =.-.* * * * * * * ;.F B @.[ * * * * * * 2 F >.,.'.* * * * * * ).< !.3 - * * * } ",
". ~.,.{.5 ].^.].* * R /.$ (._.* * * * * * :.<.[.= $ ) * * * * * 6 }./ |.@.R * * * * * [ !.< 1.2.@ 0 * * * * * 3.< 4.5.'.* * * } ",
". . . . . . . % * * & ,.6.| R * * * * * * # 7.! 2.) * * * * * * y n 8.2 9.0.* * * * * a.b.< c.d.- * * * * * a.e.< f.g.- 0 * * } ",
". h.$ d.m i.| % * * 9.j.k.9._.* * * * * * = l.> m.9.] * * * * * $.n n.l.$.:.* * * * * # < / 4.o.& * * * * * ) < < c p...:.* * } ",
". 0.q.r.] ` Y ].s.s.t.V k.v u.s.s.s.s.s.s.#.*.U v.R w.s.s.s.s.s.2.x.y.z.@ s O s.s.s.s.% A.A.B.6.% C.s.s.s.s.D.e.< X 2 +.+ s.s.E.",
". F.L G.G.b } ) s s H.%.I.i.J.* s s s s s z K.1.g.+.u u.s s s s H.L.M.N.|.[ u.s s s s C.f.< N.W y u T s s s * U < !.M.O.s * s G.",
". a P.T Q.R.a % * * _.5 i.S.t v * * * * * j.T.U.V.6 ) 0.* * * * {.N./ *.#.t ) * * * * {.T.F W.' X.a.R * * * Y.3.Z.).`.6 [ a.* } ",
".  +v..+G /.i...* * G k V 4 t :.* * * * * 9.++@+#+$+6 0.* * * * G l.A.{ %++.].0 * * * * >.F 4.o D ) R * * * &.&+y.>.U.*+#.v * } ",
". 6 - -.m G X...* * :.$+#.@.X.- [ * * * * '.1 =+q.& & * :.* * * y 1.F { 9 %.~.-.* * * [ F F n.{ d ) :.* * * * -+;+j >+,+$ R R } ",
". . . . . . . % * * & # ^.$ :.R :.* * * * Q ,+2 J | _ 0._.z * * '+j )+!+#+k :.:.:.* * ^.b.x.&+I.d._ z R R *  .-+-+< *.~+$+v :.} ",
". h.@ $.Q 0.$+) s ] V.V.x $ G ` S ] s s [ ~+r.Z {+y :.` ) ] s ]+H }.A.<.' @ S.S.] [ I I.^+M.>+/+k X.S.t t ] (+_+~ ^+g.6.+.t _.:+",
". [ {+1 $ 2.2.].s.H.R <+4 -.% z z [ Q.w 0 d *.[+%+y * u 0 ]+I s U.<._+E }+].) ; 0 I [ 9 >+c X |+J ~.; 0 z 0 #+L.)+W.X V X.0 0 } ",
". D.1+a 2+ +2+:.] 1+3+&.].v J.h.7 a R.I + T }+4+5.k J.C.L 3+G.L - ! 5+6+*+^.A + F.L s.; ).7+8+{ 9 .. +L L s.e B N.f.l.9+Y.p N E.",
". l C.J.h.C.H.) s ]+a.h v ` P.C.s s s s z  .H m.8 ` s P.s s s ] g.).<.5./.t.H.]+s s I !+A.W.7.Z _ t.w s s s 0+_+j { d {+:.H.s G.",
". D./+6.Q h a+%.* S :.:.~.&.s ` * * * * s = 4+9 k.@.&.[ * * * &.' *.b+K {+] a.` * * ; c+d+e+@+J 9.~.] * * * 9+E L.f+,+x _.&.* } ",
". & _ | 6 /.].% * R z _.].].* R * * * * ] a.|..+m.g+) [ * * * T 4 U h+.+i m ..R * * * 4 i+h+g.K }+y _.* * * V h+)+X ++K.2.h u } ",
". . . . . . . % * * ; #.h a.X.R R * * * * # j+|.$.y :.R * * * * ' h+n.(+k.$+& X.t.* ] 9 U.-+H k+Y.Y.- :.* t /+g f.>+[.J 2.v G :+",
". a.0.8 (. +y % * R & 4 & -._.R * * * * R 2.'+|+m 2.&.R * * * :.$.U.f.*.k.m G R R * a.| H l+m+d $+J ] * * +.9.! 8+X j.D D -.*  +",
". R J.R x w  .^.s I ` $+% ].t.v ]+]+s s s $ `.n+{.V m.@.* I s s 4 z.@+p.#+V. .~.S.I I | 2 B > /+{+`.9.) ]+[ = ).-+i i+2.8 ^.6 F.",
". H.D.F.T s w z s.o+u z z s h.S e 1+s.s.s.v k m.g+@ | S s G.s.L k *.6+' 6.9.6 s s P.R.$ [.;.[.' (+<+t.p 2+p+d 0+).=+@+1 9 t p D.",
". L N 3+C.o+C.% ; v z t.'.* D.q+e D.* ; @.#.{+,.+.t.S p :+A * {.5 n+q.d k+G t H.:+A $.(+B @+|+9  .~.[ R.H.$.r+7.B 6+' {.2.S.p+s+",
". X._.=.-.y |+%.u.* [ 0.0.h.* T ] u.* ; * (._ _ 9.-.0 z S ` * ^.=.9 |.#+9 4 '.0.S u.[ |+2 4+|.`.`.$ ] S.] /.n+l+X K <+J ].% u 3+",
". a.'.8 `.9.-.% ` ` -.].& 0.` R R * R S #...@.9.h t t.] 0 R 0 ^.(+}+j.8 /.+.].) u * 2.q.}+U.9 5 m Y.v _.* /.r.{ m+q.~+5 $.t [ F.",
". . . . . . . % * G &.) 0.&.&.] * * * G % | 4 ^.'.:.` R :.R t #+' ' 5 ' ^.X.G R :.0.<+v.9 r.j+|.= '.@.:.:.k k.K h+v.n+k+) '.~.:+",
". h * Y.k+V <+% R R :.R t.&.t * R * R G - % +.Y._ _ ) :.* R G X.(+#+#+9 x - & R % t j+J [.K.++(+9 | #.t.R ,.1 g+! p.|+8 $+#.R A ",
". - 0.{+R t+[ _ * [ 0.] a.; t.a.I I * [ #.t.-.Y.^.& 0.&.S u.t i.4 k.g+V V m 0.]+z a.R d ,.1 *.|+m & @.[ [ '+= O.i+[.=.`.'+# [ } ",
". P O u+v+r s+&.}  +p t.H.* ] ` T w. +H.p G u.& '.y % J.w J.; S...%.V.+.V %.` v S.R a.| 9 a+~+y -.h h ~.z '.V (+4+q.& m '.$.~.s+",
". . L v 2+) % &.S ]+z z h.` ; w 3+P.D.J.0 @.[ G 6 0.h.* ]+Q.P.y 6.h i.2.-.z 0.~.C.P.8 _ {.k+5.G 4 y % b u `.# /.2 n+$+k V [ l A ",
". . J.: }+S _ %.p ` s I * ~.a.p u a.u z p z z '.^.G s - _.I R z './.@ k.6 +.%.` 0 &.~.d.x ,.8 6 V.#+S.-.i.@.5 J K Y.k /.| [ y u+",
". . L R & S.7 - z R ) ] T J.; 0 % ) ] ] ` # &.t a.D.% S.e S :.& = ~.# '+e /.-.w.u.G - 8 {.{.D #.$.a.A u C.<+$+'+*+k+{+k.~.6 0 a ",
". . . . . . . % R R R * R * 0 ] R * R ]+G ) S -.) [ '.G * R p &.y X.Y.@.G +.a.'.` &.G $ /.k+_ # <+u.'+'.:.$+$.#.*+(.V d.% y 0.I ",
". . p+9 =.(+(.% * * R * R -.&.] * * % u R _.z - t.` a.z -.:.t ].'.:.%.t.% [ 0 - ~.X._.g+(.D -.d.& ]+~.]+(.% I./.,+i./.# -.S S P.",
". . s+R 5.V g+%.* * R * * * * * * * * :.* :.u % v t R * R * G &.R - 6 a.-.:.[ * * G t.2.+.J ) ,.0.].) * a.- 8 @.5.^.J ] %.-.S.} ",
". . s+s.7 O . v w I S [ w 0.e ] e ]+A v u t.T ` u ]+'.p t w h h.0.]+:.&.a._.t t J.$+u h h _ z t.J.:.R R ` &.m &./.t.6 u v u.- L ",
". . . T 0 ) v [ 7  +7  +7 2+G.2+L v+R.G.P.p+w P.2+P.P.R.a C.s ]+h.e 0 P.h.1+s t+q+h.e R e _  +:.R.- P.q+&.e G h.d. +'+F.'.q+1+3+",
". . z Y _.& 4 %.* 2+* t+* w ` w.] * p+A ; h.u G D.~.:+%.H.v  +; ; R i.; i.D./.2+^.H.; ~.; @.s k p+m 2+6 z ~.@.&.-.]+- ` t.S.% H.",
". . 1+9.^.t 7 % * * * * * A * I I * z * R.R p ; p ; I A * s R R ; * &.p ~.I a.0 u.v u &.; i.; ].] T h p i.i.~.-.^.; -.R * i.; :+",
". . . . . . . % * R * ; S.* R * * * [ u [ R C.S.]+u * z 0 Q.R 1+S.P.z I w * t+v :+t v u ; -.* z &.b ] P.S G :.; i.0 ; ) 3+]+S . ",
". . 7 .+2.d k % * R * * * * * * * * w+x+G ; * R * :.y+z+A+A+x+] R z '.* _.A+A+A+A+w+v _.B+C+A+A+A+D+E+F+; -.` ~.#.t ; /.* '.~.D.",
". . C.8 J r.Y %.* R * * R * * * * R y+G+:.* u 6 * [ ) y+A+A+x+) * p -.* H+A+A+A+I+S.2+J+A+A+D+K+L+A+G+M+* u ..[ &.t 0 h * w i.} ",
". . s+F.l N+u+&.p ]+D.T I H.* 2+Q.O+A+A+v D.T ` H.* t P+A+A+Q+) D.h.&.R+S+A+A+A+T+e U+V+A+W+D.p ~.X+A+B+p+]+0 ` 0 w w ~.p+Q.'.7 ",
". . N+%.X.i.` t Q.L F.2+:+G.P l Y+A+A+A+q+F.J.J.G.H.Z+`+A+A+A+D.F.P.;  @.@A+A+A+o+]++@A+A+D+F.P.R.H.@@#@p X.L w.:.3+D.p 3+R G.P ",
". . b k.O.o ' %.:+u.* a s * h.* $@D+A+A+s * p [ * R.%@A+&@A+A+q+* ; *@G+=@A+A+A+t 0.-@A+A+;@>@t+9._.,@; ~.* * z h t 1+-.4 E.; w ",
". . l - u w ]+% R * * * * * * x+G+x+A+A+y+* q+s * T '@)@y+A+A+S.* ; I+w+!@A+A+x+; u z y+A+A+A+~@{@].* * ; t.* * a._.* A $.* * q+",
". . . r v+E.v+% * * * * R * ]@D+^@x+A+A+y+* * R * * A+/@y+A+A+* * (@_@>@z+A+:@]@p r * >@ @A+A+A+<@[@* * P * * w.+ * * D.; z * r ",
". . 7 }@~+m.Y % R * * * * * x+|@[ ]@G+A+y+* u % * w+G+]@y+A+A+* >@z+E+x+A+A+1@* * ] ; * 2@3@A+A+A+G+* * s * * u.A ) * H.G z * F.",
". . 1+d D 2.# %.* * * * R * z+^@* * y+A+G+]@* R * y+y+R y+A+A+x+A+x+R D+A+A+J+* * * * * * R J+A+A+A+>@* * * * * v ) * * * * * } ",
". . . . . . . S.t+t+w.* 4@5@6@7@8@y+z+A+A+9@* * e 0@a@1+y+A+A+0@b@]@* A+A+A+C.* ` c@d@R.* z * a@6@A+e@* R t+t+]+R z t+t+t+u.* } ",
". . N ^._._.% S.t+t+e D.f@A+g@h@i@j@k@A+A+-@T S D.A+t+z >@A+A+A+l@T S.A+A+A+t * v m@5@D.T * p t+7@A+n@* 3+t+R.; R [ t+t+I u G 3+",
". . q %.] 9.= %.* * D.F.o@x+* T F.F.p@A+A+q@+ R.r@A+* 3+w A+A+x+Q.2+s@A+A+y+1+w  +t@G+u@w 0 T ]@G+A+v@s T * u.A z S * * P.T ]+N ",
". . R.# 9.:.]+% * * * w+n@w@* * * * J+A+A+D++ c@3@G+* ]+7 A+x@]@* a 0@A+A+y+w 7 P.)@A+G+y@z@A@G+A+B@r L R * * b M * * * I r v+a ",
". . . . . . . % * * * A+z+y+* * * y+z+A+A+z+y+G+A+A+y+>@* A+x+* >@y+A+A+A+z+w+* * x+G+G+A+A+A+A+D+]@* R * * * * 0 t * * * * * } ",
". . 7 Q v.: k+~.* * * * * * * * * * * * * * * * * * * * * * * * * * * * * * * * * * * * * * * * * * * * * * * * * * * * * * * } ",
". . 7 5 @.j.k.^.* * * * * * * * * * * * * * * * * * * * * * * * * * * * * * * * * * * * * * * * * * * * * * * * * * * * * * * } ",
". . . . . . . % * * * * * * * * * * * * * * * * * * * * * * * * * * * * * * * * * * * * * * * * * * * * * * * * * * * * * * * } ",
". . 7 ] &.z s S.t+t+t+t+t+t+t+t+t+t+t+t+t+t+t+t+t+t+t+t+t+t+t+t+t+P.u.t+t+t+t+t+t+t+t+ +* * h.t+t+t+t+t+t+t+P.* * * 1+t+t+t+t+N+",
". . . x O.!+g+@.t+t+t+t+t+t+t+t+t+t+J.t+t+t+t+t+t+t+t+t+t+J.t+t+t+o+u+t+t+t+t+t+e 1+t+a . . s.t+t+t+t+t+J.t+L D.D.l q+t+t+t+t++ ",
". . 7 -.` u.]+5 g+y * * * * * * * * d (+Y * * * * * * * * 5 | k+* * * * * * * * k %.V * * * * * * * * * <+$+; G G R * * * * - d.",
". . . . . p+D.V _ ~.. . . . . . R.2+) e [ . . . . . . L h.%.&.9 . . . . . . s.* I ` x . . . . . . . G.p u.+.. . . . . . . . Q.,.",
". . . . . . P @.z H.. . . . . . . . $+u E.. . . . . . . . ` ; R.. . . . . . . . w z '.. . . . . . . . . &. +. . . . . . . . w.z "};
