/* XPM */
static char * feval_xpm[] = {
"65 64 269 2",
"  	c None",
". 	c #867B73",
"+ 	c #928B83",
"@ 	c #918D83",
"# 	c #948982",
"$ 	c #948882",
"% 	c #938A82",
"& 	c #908481",
"* 	c #8F8C7E",
"= 	c #918881",
"- 	c #918A80",
"; 	c #908B7F",
"> 	c #928982",
", 	c #938A83",
"' 	c #989082",
") 	c #919287",
"! 	c #918780",
"~ 	c #90897F",
"{ 	c #8D8B81",
"] 	c #90827B",
"^ 	c #91847E",
"/ 	c #938A81",
"( 	c #938784",
"_ 	c #938789",
": 	c #928A82",
"< 	c #918682",
"[ 	c #91867F",
"} 	c #918D7F",
"| 	c #918280",
"1 	c #8F8A7F",
"2 	c #918581",
"3 	c #918388",
"4 	c #918687",
"5 	c #938C7E",
"6 	c #918680",
"7 	c #928381",
"8 	c #90867E",
"9 	c #91867E",
"0 	c #918380",
"a 	c #918781",
"b 	c #938882",
"c 	c #988882",
"d 	c #938982",
"e 	c #928780",
"f 	c #91817B",
"g 	c #8F837C",
"h 	c #8F857E",
"i 	c #8F867E",
"j 	c #8B8C7B",
"k 	c #90877F",
"l 	c #918580",
"m 	c #908C7E",
"n 	c #918980",
"o 	c #918181",
"p 	c #908480",
"q 	c #93857F",
"r 	c #928781",
"s 	c #938181",
"t 	c #908083",
"u 	c #90847F",
"v 	c #FFFFFF",
"w 	c #DEDEDE",
"x 	c #E9E9E9",
"y 	c #C8C8C8",
"z 	c #E3E3E3",
"A 	c #797979",
"B 	c #A5A5A5",
"C 	c #938582",
"D 	c #6B6B6B",
"E 	c #B3B3B3",
"F 	c #948682",
"G 	c #EAEAEA",
"H 	c #8A8A8A",
"I 	c #DDDDDD",
"J 	c #414141",
"K 	c #948B82",
"L 	c #FCFCFC",
"M 	c #1E1E1E",
"N 	c #948983",
"O 	c #939393",
"P 	c #F9F9F9",
"Q 	c #000000",
"R 	c #E7E7E7",
"S 	c #7C7C7C",
"T 	c #151515",
"U 	c #C4C4C4",
"V 	c #918482",
"W 	c #989898",
"X 	c #868686",
"Y 	c #5A5A5A",
"Z 	c #928A81",
"` 	c #938D84",
" .	c #949085",
"..	c #938B83",
"+.	c #787878",
"@.	c #262626",
"#.	c #E2E2E2",
"$.	c #908780",
"%.	c #606060",
"&.	c #080808",
"*.	c #5D5D5D",
"=.	c #DCDCDC",
"-.	c #AFAFAF",
";.	c #B6B6B6",
">.	c #222222",
",.	c #BEBEBE",
"'.	c #938980",
").	c #292929",
"!.	c #938680",
"~.	c #93857E",
"{.	c #C7C7C7",
"].	c #0A0A0A",
"^.	c #7E7E7E",
"/.	c #8F8580",
"(.	c #928881",
"_.	c #A3A3A3",
":.	c #717171",
"<.	c #565656",
"[.	c #888888",
"}.	c #FDFDFD",
"|.	c #908B82",
"1.	c #343434",
"2.	c #E0E0E0",
"3.	c #848484",
"4.	c #797369",
"5.	c #E8E8E8",
"6.	c #646464",
"7.	c #747474",
"8.	c #585858",
"9.	c #898078",
"0.	c #3B3B3B",
"a.	c #696969",
"b.	c #070707",
"c.	c #746B63",
"d.	c #F0F0F0",
"e.	c #EEEEEE",
"f.	c #F3F3F3",
"g.	c #9B9B9B",
"h.	c #FBFBFB",
"i.	c #484848",
"j.	c #CACACA",
"k.	c #8D8D8D",
"l.	c #FAFAFA",
"m.	c #EFEFEF",
"n.	c #F1F1F1",
"o.	c #92867E",
"p.	c #505050",
"q.	c #313131",
"r.	c #777777",
"s.	c #919191",
"t.	c #CECECE",
"u.	c #808080",
"v.	c #9F9F9F",
"w.	c #B7B7B7",
"x.	c #7B7B7B",
"y.	c #EBEBEB",
"z.	c #D6D6D6",
"A.	c #1B1B1B",
"B.	c #8B8B8B",
"C.	c #161616",
"D.	c #8E8E8E",
"E.	c #0E0E0E",
"F.	c #242424",
"G.	c #878177",
"H.	c #C2C2C2",
"I.	c #383838",
"J.	c #ACACAC",
"K.	c #515151",
"L.	c #1A1A1A",
"M.	c #9E9E9E",
"N.	c #9C9C9C",
"O.	c #191919",
"P.	c #716862",
"Q.	c #3E3E3E",
"R.	c #727272",
"S.	c #616161",
"T.	c #1D1D1D",
"U.	c #E5E5E5",
"V.	c #757575",
"W.	c #535353",
"X.	c #E4E4E4",
"Y.	c #71695F",
"Z.	c #C1C1C1",
"`.	c #2E2E2E",
" +	c #424242",
".+	c #202020",
"++	c #F6F6F6",
"@+	c #8F8F8F",
"#+	c #736562",
"$+	c #F8F8F8",
"%+	c #1F1F1F",
"&+	c #7D7D7D",
"*+	c #F2F2F2",
"=+	c #736862",
"-+	c #F5F5F5",
";+	c #746C61",
">+	c #BBBBBB",
",+	c #777466",
"'+	c #877D74",
")+	c #C5C5C5",
"!+	c #7D736C",
"~+	c #909090",
"{+	c #2A2A2A",
"]+	c #838383",
"^+	c #BABABA",
"/+	c #676767",
"(+	c #B4B4B4",
"_+	c #101010",
":+	c #030303",
"<+	c #C0C0C0",
"[+	c #636363",
"}+	c #7A7A7A",
"|+	c #EDEDED",
"1+	c #948A80",
"2+	c #908C84",
"3+	c #8E8F85",
"4+	c #B9A0A0",
"5+	c #F67676",
"6+	c #EF0909",
"7+	c #F9ADAD",
"8+	c #944747",
"9+	c #F23F3F",
"0+	c #850606",
"a+	c #DD2A2A",
"b+	c #B96D6D",
"c+	c #F79191",
"d+	c #F45B5B",
"e+	c #F02424",
"f+	c #D30707",
"g+	c #B07E7E",
"h+	c #FBC8C8",
"i+	c #755C5C",
"j+	c #C61414",
"k+	c #C02727",
"l+	c #FDE3E3",
"m+	c #772A2A",
"n+	c #986565",
"o+	c #B23333",
"p+	c #928B82",
"q+	c #C77A7A",
"r+	c #4E3535",
"s+	c #6B0505",
"t+	c #B9B9B9",
"u+	c #A2A2A2",
"v+	c #908C7F",
"w+	c #E6E6E6",
"x+	c #656565",
"y+	c #BA0707",
"z+	c #90887D",
"A+	c #90857E",
"B+	c #8F8C82",
"C+	c #974A4A",
"D+	c #91887E",
"E+	c #B33434",
"F+	c #918582",
"G+	c #661919",
"H+	c #B06363",
"I+	c #D48787",
"J+	c #994C4C",
"K+	c #EC9F9F",
"L+	c #C6C6C6",
"M+	c #9D9D9D",
"N+	c #818181",
"O+	c #93867F",
"P+	c #8F8281",
"Q+	c #595959",
"R+	c #A4A4A4",
"S+	c #B1B1B1",
"T+	c #928782",
". + @ # $ % & * = - ; > , ' ) ! ~ { ] ^ / % ( _ : < [ } = | 1 2 3 4 1 5 6 7 8 9 0 a b # c d e f g h i j k l = m n o p q r s t u h ",
"d v v v v v v v v v v v v v v v v v v v v v v v v w x v v v v v v v v v v v v v v v v v v v v v v v v v v v v v v v v v v v v v v ",
"d v v v v v v v v v v y z v v v v v v v v v v v v A B v v v v v v v v v v v v v v v v v v v v v v v v v v v v v v v v v v v v v v ",
"C v v v v v v v v v v D E v v v v v v v v v v v v A B v v v v v v v v v v v v v v v v v v v v v v v v v v v v v v v v v v v v v v ",
"F v v v v v v v v v v D E v v v v v v v v v v v v A B v v G H v v v v v v v v v v v v v v v v v v v v v v v v v v v v v v v v v v ",
"% v v v v v v v v v v D E v v v v v v v v v v v v A B v v I J v v v v v v v v v v v v v v v v v v v v v v v v v v v v v v v v v v ",
"K v v v v v v v v v v D E v v v v v v v v v v v v A B v L M J v v v v v v v v v v v v v v v v v v v v v v v v v v v v v v v v v v ",
"N v v v v v v v v v v D E v v v v v v v v v v v v A O P L Q J v v v v v v v v v v v v v v v v v v v v v v v v v v v v v v v v v v ",
"d v v v v v v v v v v D E v v v v v v v v v v v R S T U L Q J v v v v v v v v v v v v v v v v v v v v v v v v v v v v v v v v v v ",
"V v v v v v v v v v v D E v v v v v v v v v v v W X Y U L Q J v v v v v v v v v v v v v v v v v v v v v v v v v v v v v v v v v v ",
"Z v v v v v v v v v v D E v v v v v v v v v v v W X Y U L Q J v v v v v v v v v v v v v v v v v v v v v v v v v v v v v v v v v v ",
"` v v v v v v v v v v D E v v v v v v v v v v v W X Y U L Q J v v v v v v v v v v v v v v v v v v v v v v v v v v v v v v v v v v ",
" .v v v v v v v v v v D E v v v v v v v v v v v W X Y U L Q J v v v v v v v v v v v v v v v v v v v v v v v v v v v v v v v v v v ",
"..v v v v v v v v v v D E v v v v v v v v v v v W X Y U L Q J v v +.@.#.v v v v v v v v v v v v v v v v v v v v v v v v v v v v v ",
"$.v v v v v v v v v v D E v v v v v v v v v v v W X Y U L Q J v v %.Q I v v v v v v v v v v v v v v v v v v v v v v v v v v v v v ",
"! v v v v v v v v v v D E v v v v v v v v v v v W X Y U L &.*.=.v %.Q I v v v v v v v v v v v v v v v v v v v v v v v v v v v v v ",
"e v v v v v v v v v v D E v v v v v v v v -.;.v W X Y U L >.,.%.v %.Q I v v v v v v v v v v v v v v v v v v v v v v v v v v v v v ",
"'.v v v v v v v v v v D E v v v v v v v v T ).v W X Y U L >.,.%.v %.Q I v v v v v v v v v v v v v v v v v v v v v v v v v v v v v ",
"! v v v v v v v v v v D E v v v v v v v v T ).v W X Y U L >.,.%.v %.Q I v v v v v v v v v v v v v v v v v v v v v v v v v v v v v ",
"!.v v v v v v v v v v D E v v v v v v v v T ).v W X Y U L >.,.%.v %.Q I v v v v v v v v v v v v v v v v v v v v v v v v v v v v v ",
"e v v v v v v v v v v D E v v v v v v v v T ).v W X Y U L >.,.%.v %.Q I v v v v v v v v v v v v v v v v v v v v v v v v v v v v v ",
"~.v v v v v v v v v v D E v v v v v v v v T ).v W X Y U L >.,.%.v %.Q I v {.].^.v v v v v v v v v v v v v v v v v v v v v v v v v ",
"/.v v v v v v v v v v D E v v v v v v v v T ).v W X Y U L >.,.%.v %.Q I v U Q A v v v v v v v v v v v v v v v v v v v v v v v v v ",
"(.v v v v v v v v v v D E v v v v v v v v T ).v W X Y U L >.,.%.v %.Q I v U Q A v v v v v v v v v v v v v v v v v v v v v v v v v ",
", v v v v v v v v v v D E v v v v v v v _.:.).v W X Y U L >.,.%.v %.<.[.}.U Q A v v v v v v v v v v v v v v v v v v v v v v v v v ",
"|.v v v v v v v v v v D E v v v v v v v 1.2.).v W X Y U L >.,.%.v %.,.>.L U Q A v v 3.P v v v v v v v v v v v v v v v v v v v v v ",
"4.+.v v v v v v v v v D E v v v v v v v 1.2.).v W X Y U L >.,.%.v %.,.>.5.6.7.A v v ).8.v v v v v v v v v v v v v v v v v v v v v ",
"9.I v v v v v v v v v D E v v v v v v v 1.2.).v W X Y U L >.,.%.v %.,.>.2.0.B A v a.b.T v v v v v v v v v v v v v v v v v v v v v ",
"c.<.v v v v d.e.e.f.v D E v v v v v v v 1.2.).v W X Y U L >.,.%.X g.h.>.2.0.B A v i.j.M v P H k.l.v m.n.v v v v v v v v v v v v v ",
"o.v v v v v p.q.q.r.x <.s.t.t.t.t.t.t.m.1.2.).v W X Y U L >.,.%.u.v.v >.2.0.w.x.y.i.z.A.t.B.C.T D.t.E.F.t.t.t.t.t.t.t.t.t.t.t.t.t.",
"G.H.v v v v v v v v -.>.I.p.p.p.p.p.F.J.1.2.).v W X Y U L >.,.%.u.v.v >.2.0.v X W i.z.K.Q L.M.N.O.J p.p.p.p.p.p.p.p.p.p.p.p.p.p.p.",
"P.Q.v v v v v v v v v D E v v v v v R.S.T.U.V.-.W X Y U L >.,.%.u.v.v >.2.0.v X W i.z.G Q W.v v N.X.v v v v v v v v v v v v v v v ",
"Y.Q.v v v v v v v v v D E v v v v v Z.`.Q G z.i.W X Y U u.M.,.%.u.v.v >.2.0.v X  +.+z.++@+E v v v v v v v v v v v v v v v v v v v ",
"#+Q.v v v v v v v v v D E v v v v v v W.B.$+z.i.W X Y U %+v ,.%.u.v.v >.2.0.v X Q &+*+v v v v v v v v v v v v v v v v v v v v v v ",
"=+Q.v v v v v v v v v D E v v v v v v w -+v z.i.W X Y U %+v ,.%.u.v.v >.2.0.v X Q w.v v v v v v v v v v v v v v v v v v v v v v v ",
";+Q.v v v v v v v v v D E v v v v v v v v v z.i.W X Y U %+v ,.%.u.v.v >.2.0.v k.E.>+v v v v v v v v v v v v v v v v v v v v v v v ",
",+%.v v v v v v v v v D E v v v v v v v v v z.i.W X Y U %+v ,.%.u.v.v >.2.0.v v v v v v v v v v v v v v v v v v v v v v v v v v v ",
"'+)+v v v v v v v v v D E v v v v v v v v v z.i.W X Y U %+v ,.%.u.v.v >.2.0.v v v v v v v v v v v v v v v v v v v v v v v v v v v ",
"!+~+v v v v v v v v v D E v v v v v v v v v z.{+]+^+Y U %+v ,.%.u.v.v >.k.D.v v v v v v v v v v v v v v v v v v v v v v v v v v v ",
"h v v v v v v v v v v D E v v v v v v v v v z.Q /+v (+A _+v ,.%.u.v.v g.T.v v v v v v v v v v v v v v v v v v v v v v v v v v v v ",
"8 v v v v v v v v v v D E v v v v v v v v v z.Q /+v v 0.:+v ,.%.u.v.v v %+v v v v v v v v v v v v v v v v v v v v v v v v v v v v ",
"k v v v v v v v v v v D E v v v v v v v v v z.Q /+v v 0.:+v ,.%.u.v.v v %+v v v v v v v v v v v v v v v v v v v v v v v v v v v v ",
"h v v v v v v v v v v D E v v v v v v v v v z.Q /+v v 0.:+v <+[+}+v.v v |+v v v v v v v v v v v v v v v v v v v v v v v v v v v v ",
"1+v v v v v v v v v v D E v v v v v v v v v z.Q /+v v 0.:+v v v.Q v.v v v v v v v v v v v v v v v v v v v v v v v v v v v v v v v ",
"2+v v v v v v v v v v D E v v v v v v v v v z.Q /+v v 0.:+v v v.Q v.v v v v v v v v v v v v v v v v v v v v v v v v v v v v v v v ",
"3+v v v v v v v v v v D E v v v v v v v v v z.Q /+v v 0.:+v v v.Q v.v v v v v v v v v v v v v v v v v v v v v v v v v v v v v v v ",
"! v v v v v v v v v v D 4+5+6+6+6+7+7+5+6+6+z.Q 8+9+6+6+0+7+7+a+6+b+v v v v v v v v v v v v v v v v v v c+d+e+6+v v v v v v v v v ",
"$.v v v v v v v v v v D E 7+6+6+7+v v v d+9+z.Q /+d+6+6+:+v v b+f+g+v v v v v v v v v v v v v v v v v v h+d+6+6+v v v v v v v v v ",
"Z v v v v v v v v v v D E c+6+6+7+v v v d+7+z.Q i+9+6+j+:+v v b+k+G v v v v v v v v v v v v v v v v v v v d+6+d+v v v v v v v v v ",
"d v v v v v v v v v v D E d+6+6+v v l+l+h+v z.Q 8+6+6+m+:+v h+g+n+v v v v v v v v v v v v v v v v v v v l+9+6+c+v v v v v v v v v ",
"d v v v v v v v v v v D 4+9+6+6+v v 5+7+v v z.Q o+6+6+m+:+l+d+v.u.v l+7+d+c+v v 5+5+v v 7+5+d+l+d+c+v v 7+6+6+v v v v v v v v v v ",
"p+v v v v v v v v v v D q+6+6+5+v d+6+7+v v z.Q 6+6+6+r+s+9+d+t+u+v l+5+6+d+v v 6+6+v h+6+9+7+9+6+d+v v 7+6+6+v v v v v v v v v v ",
"v+v v v v v v v v v v D q+6+6+5+7+6+9+l+v v w+x+6+6+6+m+y+6+h+v v v v 7+6+d+v v d+d+h+6+9+l+v d+6+h+v v d+6+7+v v v v v v v v v v ",
"z+v v v v v v v v v v D 6+6+6+v v 7+d+v v v v 7+6+6+7+0.:+6+v v v v v l+6+e+h+v 6+v 9+6+d+v v 6+6+v v h+e+6+7+v v v v v v v v v v ",
"A+v v v v v v v v v v D 6+6+6+v v h+v v v v v 7+6+6+7+0.:+c+v v v v v v 6+6+7+d+7+v 6+6+v v h+6+9+v v 7+6+6+v v v v v v v v v v v ",
"B+v v v v v v v v v v C+6+6+7+v v v v v v v v 6+6+d+v 0.:+v v c+7+v v v 6+6+5+9+v v 6+6+v v d+6+7+h+v c+6+9+h+v v v v v v v v v v ",
"D+v v v v v v v v v v E+6+6+7+v v v v v v v l+6+6+d+v 0.:+v c+9+h+v v v 6+6+9+l+v v 9+6+7+c+d+6+d+c+v d+6+5+d+v v v v v v v v v v ",
"F+v v v v v v v v v 7+6+6+6+5+l+v v v v v h+5+6+6+9+7+m+G+d+6+d+v v v v 6+d+l+v v v h+9+6+d+l+6+c+v v 5+6+9+l+v v v v v v v v v v ",
"~.v v v v v v v v v 7+H+I+7+7+l+v v v v v h+7+7+7+7+7+J+K+7+7+h+v v v v 7+l+v v v v v l+7+l+v 7+v v v l+7+l+v v v v v v v v v v v ",
"(.v v v v v v v v v v L+M+M+M+M+M+M+M+M+M+M+M+M+M+M+M+M+M+M+M+M+M+M+M+M+M+M+M+M+M+M+M+M+M+M+M+M+M+M+M+M+M+M+M+M+M+M+M+M+M+M+M+M+M+",
"1+v v v v v v v v v v ;.N+N+N+N+N+N+N+N+N+N+N+N+N+N+N+N+N+N+N+N+N+N+N+N+N+N+N+N+N+N+N+N+N+N+N+N+N+N+N+N+N+N+N+N+N+N+N+N+N+N+N+N+N+",
"O+v v v v v v v v v v v v v v v v v v v v v v v v v v v v v v v v v v v v v v v v v v v v v v v v v v v v v v v v v v v v v v v v ",
"P+v v v v v v v v v v v v v v v v v v v v v v v v v v v v v v v v.;.v Q+5.D v R+S+V.2.v v v v v v v v v v v v v v v v v v v v v v ",
"T+v v v v v v v v v v v v v v v v v v v v v v v v v v v v v v v m.f.v X.h.R v d.*+5.l.v v v v v v v v v v v v v v v v v v v v v v "};
