/* XPM */
static char * filter_tool_xpm[] = {
"22 22 41 1",
" 	c None",
".	c #C0C0C0",
"+	c #BCBCBC",
"@	c #7C7C7C",
"#	c #959595",
"$	c #929292",
"%	c #8B8B8B",
"&	c #A2A2A2",
"*	c #8A8A8A",
"=	c #949494",
"-	c #BABABA",
";	c #B4B4B4",
">	c #FFFFFF",
",	c #F0F0F0",
"'	c #9F9F9F",
")	c #898989",
"!	c #A6A6A6",
"~	c #828282",
"{	c #9E9E9E",
"]	c #D2D2D2",
"^	c #868686",
"/	c #CDCDCD",
"(	c #969696",
"_	c #818181",
":	c #AFAFAF",
"<	c #8F8F8F",
"[	c #D7D7D7",
"}	c #8D8D8D",
"|	c #C3C3C3",
"1	c #787878",
"2	c #AAAAAA",
"3	c #EBEBEB",
"4	c #ACACAC",
"5	c #D0D0D0",
"6	c #BEBEBE",
"7	c #F2F2F2",
"8	c #A4A4A4",
"9	c #D4D4D4",
"0	c #808080",
"a	c #A0A0A0",
"b	c #A8A8A8",
"......................",
"+@##$%.........&*###=.",
"-;>>>,')!...+~{]>>>>^.",
"-;>>>>>>/(_(:>>>>>>>^.",
"-;>>>>>>>>>>>>>>>>>>^.",
"-;>>>>>>>>>>>>>>>>>>^.",
"+@<[>>>>>>>>>>>>>>}#=.",
"..:|>>>>>>>>>>>>>>)...",
"..:|>>>>>>>>>>>>>>)...",
"..:|>>>>>>>>>>>>>>)...",
"..:|>>>>>>>>>>>>>>)...",
"..:|>>>>>>>>>>>>>>)...",
"..:|>>>>>>>>>>>>>>)...",
"..:|>>>>>>>>>>>>>>)...",
"..:|>>>>>>>>>>>>>>)...",
"..:|>>>>>>>>>>>>>>)...",
"-123>>>>>>>>>>>>>>;2_.",
"-;>>>>>>>>>>>>>>>>>>^.",
"-;>>>>>>>>4>>>>>>>>>^.",
"-;>>>>>5{_6_(/>>>>>>^.",
"-;>>7!*8.....!)'9>>>^.",
"6000)...........a000b."};
