/* XPM */
static char * filter_tool_xpm[] = {
"22 22 9 1",
" 	c None",
".	c #C0C0C0",
"+	c #BCBCBC",
"@	c #000000",
"#	c #BABABA",
"$	c #FFFFFF",
"%	c #AFAFAF",
"&	c #ACACAC",
"*	c #BEBEBE",
"......................",
"+@@@@@.........@@@@@@.",
"#@$$$@@@@...+@@@$$$$@.",
"#@$$$$$$@@@@@$$$$$$$@.",
"#@$$$$$$$$$$$$$$$$$$@.",
"#@$$$$$$$$$$$$$$$$$$@.",
"+@@@$$$$$$$$$$$$$$@@@.",
"..%@$$$$$$$$$$$$$$@...",
"..%@$$$$$$$$$$$$$$@...",
"..%@$$$$$$$$$$$$$$@...",
"..%@$$$$$$$$$$$$$$@...",
"..%@$$$$$$$$$$$$$$@...",
"..%@$$$$$$$$$$$$$$@...",
"..%@$$$$$$$$$$$$$$@...",
"..%@$$$$$$$$$$$$$$@...",
"..%@$$$$$$$$$$$$$$@...",
"#@@@$$$$$$$$$$$$$$@@@.",
"#@$$$$$$$$$$$$$$$$$$@.",
"#@$$$$$$$$&$$$$$$$$$@.",
"#@$$$$$@@@@@@@$$$$$$@.",
"#@$$@@@@.....@@@@$$$@.",
"*@@@@...........@@@@@."};
