/* XPM */
static char * io_tool_xpm[] = {
"22 22 23 1",
" 	c None",
".	c #C0C0C0",
"+	c #BBBBBB",
"@	c #000000",
"#	c #B8B8B8",
"$	c #B2B2B2",
"%	c #EEEEEE",
"&	c #AFAFAF",
"*	c #FFFFFF",
"=	c #A8A8A8",
"-	c #FEFEFE",
";	c #949494",
">	c #ACACAC",
",	c #B9B9B9",
"'	c #F3F3F3",
")	c #BDBDBD",
"!	c #DEDEDE",
"~	c #BFBFBF",
"{	c #B6B6B6",
"]	c #9B9B9B",
"^	c #FCFCFC",
"/	c #B7B7B7",
"(	c #E6E6E6",
"......................",
"..............+.......",
"..............@#......",
"..............@@......",
".$@@@@@@@@@@@@@%@.....",
".&@*************@=....",
".&@*************-@....",
".&@**************@;...",
".&@***************@>..",
".&@****************@,.",
".&@****************'@.",
".&@*****************@)",
".&@****************!@.",
".&@****************@~.",
".&@***************@{..",
".&@**************@]...",
".&@*************^@....",
".&@*************@/....",
".$@@@@@@@@@@@@@(@.....",
"..............@@......",
"..............@+......",
"..............)......."};
