/* XPM */
static char * io_tool_xpm[] = {
"22 22 43 1",
" 	c None",
".	c #C0C0C0",
"+	c #BBBBBB",
"@	c #5E5E5E",
"#	c #B8B8B8",
"$	c #979797",
"%	c #969696",
"&	c #B2B2B2",
"*	c #858585",
"=	c #A5A5A5",
"-	c #BABABA",
";	c #EEEEEE",
">	c #989898",
",	c #AFAFAF",
"'	c #C4C4C4",
")	c #FFFFFF",
"!	c #C9C9C9",
"~	c #A8A8A8",
"{	c #FEFEFE",
"]	c #9D9D9D",
"^	c #F2F2F2",
"/	c #949494",
"(	c #C5C5C5",
"_	c #ACACAC",
":	c #AAAAAA",
"<	c #B9B9B9",
"[	c #F3F3F3",
"}	c #9A9A9A",
"|	c #BDBDBD",
"1	c #DEDEDE",
"2	c #A1A1A1",
"3	c #BFBFBF",
"4	c #B3B3B3",
"5	c #B6B6B6",
"6	c #E2E2E2",
"7	c #9B9B9B",
"8	c #FCFCFC",
"9	c #B7B7B7",
"0	c #A2A2A2",
"a	c #B5B5B5",
"b	c #E6E6E6",
"c	c #959595",
"d	c #5D5D5D",
"......................",
"..............+.......",
"..............@#......",
"..............$%......",
".&*===========-;>.....",
".,')))))))))))))!~....",
".,'))))))))))))){]....",
".,'))))))))))))))^/...",
".,')))))))))))))))(_..",
".,')))))))))))))))):<.",
".,'))))))))))))))))[}.",
".,')))))))))))))))))=|",
".,'))))))))))))))))12.",
".,'))))))))))))))))%3.",
".,')))))))))))))))45..",
".,'))))))))))))))67...",
".,')))))))))))))8%....",
".,')))))))))))))&9....",
".&*00000000000ab>.....",
"..............$c......",
"..............d+......",
"..............|......."};
