/* XPM */
static char * model_tool_xpm[] = {
"22 22 37 1",
" 	c None",
".	c #C0C0C0",
"+	c #B1B1B1",
"@	c #AAAAAA",
"#	c #ADADAD",
"$	c #868686",
"%	c #CCCCCC",
"&	c #C6C6C6",
"*	c #A0A0A0",
"=	c #9A9A9A",
"-	c #FFFFFF",
";	c #E3E3E3",
">	c #9F9F9F",
",	c #E6E6E6",
"'	c #9E9E9E",
")	c #E9E9E9",
"!	c #9D9D9D",
"~	c #7F7F7F",
"{	c #A9A9A9",
"]	c #CACACA",
"^	c #ECECEC",
"/	c #9B9B9B",
"(	c #999999",
"_	c #898989",
":	c #919191",
"<	c #979797",
"[	c #F8F8F8",
"}	c #FBFBFB",
"|	c #C7C7C7",
"1	c #C3C3C3",
"2	c #ABABAB",
"3	c #ACACAC",
"4	c #BDBDBD",
"5	c #AEAEAE",
"6	c #858585",
"7	c #9C9C9C",
"8	c #B0B0B0",
"......................",
".+@@@@@@@@@@@@@#......",
".$%%%%%%%%%%%%%&*.....",
".=--------------;>....",
".=---------------,'...",
".=----------------)!..",
".~{]---------------^/.",
"...'----------------=.",
"...'----------------=.",
"...'----------------=.",
"...'----------------=.",
"...'----------------=.",
"...'----------------=.",
"...'----------------=.",
"...'----------------=.",
".(_:----------------=.",
".<[}---------------|{.",
".=----------------12..",
".=---------------.3...",
".=--------------45....",
".6>>>>>>>>>>>>>78.....",
"......................"};
