/* XPM */
static char * model_tool_xpm[] = {
"22 22 16 1",
" 	c None",
".	c #C0C0C0",
"+	c #B1B1B1",
"@	c #AAAAAA",
"#	c #ADADAD",
"$	c #000000",
"%	c #A0A0A0",
"&	c #EEEEEE",
"*	c #9F9F9F",
"=	c #9E9E9E",
"-	c #9D9D9D",
";	c #242424",
">	c #ABABAB",
",	c #ACACAC",
"'	c #AEAEAE",
")	c #2E2E2E",
"......................",
".+@@@@@@@@@@@@@#......",
".$$$$$$$$$$$$$$$%.....",
".$&&&&&&&&&&&&&&$*....",
".$&&&&&&&&&&&&&&&$=...",
".$&&&&&&&&&&&&&&&&$-..",
".$$$&&&&&&&&&&&&&&&$$.",
"...$&&&&&&&&&&&&&&&&$.",
"...$&&&&&&&&&&&&&&&&$.",
"...$&&&&&&&&&&&&&&&&$.",
"...$&&&&&&&&&&&&&&&&$.",
"...$&&&&&&&&&&&&&&&&$.",
"...$&&&&&&&&&&&&&&&&$.",
"...$&&&&&&&&&&&&&&&&$.",
"...$&&&&&&&&&&&&&&&&$.",
".$;$&&&&&&&&&&&&&&&&$.",
".$$$&&&&&&&&&&&&&&&$$.",
".$&&&&&&&&&&&&&&&&$>..",
".$&&&&&&&&&&&&&&&$,...",
".$&&&&&&&&&&&&&&$'....",
".$$$$$$$$$$$$$$$).....",
"......................"};
