/* XPM */
static char * transform_tool_xpm[] = {
"22 22 46 1",
" 	c None",
".	c #C0C0C0",
"+	c #BABABA",
"@	c #838383",
"#	c #888888",
"$	c #929292",
"%	c #9E9E9E",
"&	c #DBDBDB",
"*	c #FFFFFF",
"=	c #8E8E8E",
"-	c #868686",
";	c #979797",
">	c #BEBEBE",
",	c #B2B2B2",
"'	c #BDBDBD",
")	c #A3A3A3",
"!	c #ACACAC",
"~	c #BCBCBC",
"{	c #B5B5B5",
"]	c #989898",
"^	c #959595",
"/	c #E8E8E8",
"(	c #8B8B8B",
"_	c #FAFAFA",
":	c #999999",
"<	c #B7B7B7",
"[	c #A7A7A7",
"}	c #A9A9A9",
"|	c #ADADAD",
"1	c #C5C5C5",
"2	c #848484",
"3	c #858585",
"4	c #909090",
"5	c #D5D5D5",
"6	c #A2A2A2",
"7	c #B3B3B3",
"8	c #9A9A9A",
"9	c #D3D3D3",
"0	c #949494",
"a	c #CACACA",
"b	c #AAAAAA",
"c	c #BFBFBF",
"d	c #9D9D9D",
"e	c #B6B6B6",
"f	c #7C7C7C",
"g	c #9C9C9C",
"......................",
"....+@##############$.",
"....%&**************=.",
"....-***************@.",
"....;**************>,.",
"...')**************!~.",
"...{+**************]..",
"...^/**************(..",
"...-**************_#..",
"...:**************<<..",
"..~[**************}~..",
"..|1**************^...",
"..2***************3...",
"..4**************56...",
"..:**************+{...",
".+7**************8....",
".)9**************$....",
".@***************-....",
".0**************ab....",
"cd**************e{....",
">fgggggggggggggg@.....",
"......................"};
