/* XPM */
static char * transform_tool_xpm[] = {
"22 22 14 1",
" 	c None",
".	c #C0C0C0",
"+	c #000000",
"@	c #DBDBDB",
"#	c #FFFFFF",
"$	c #BDBDBD",
"%	c #BCBCBC",
"&	c #E8E8E8",
"*	c #FAFAFA",
"=	c #B7B7B7",
"-	c #B5B5B5",
";	c #BABABA",
">	c #BFBFBF",
",	c #BEBEBE",
"......................",
"....+++++++++++++++++.",
"....+@##############+.",
"....+###############+.",
"....+##############++.",
"...$+##############+%.",
"...++##############+..",
"...+&##############+..",
"...+##############*+..",
"...+##############+=..",
"..%+##############+%..",
"..++##############+...",
"..+###############+...",
"..+##############++...",
"..+##############+-...",
".;+##############+....",
".++##############+....",
".+###############+....",
".+##############++....",
">+##############+-....",
",++++++++++++++++.....",
"......................"};
