/* XPM */
static char * user_tool_xpm[] = {
"22 22 19 1",
" 	c None",
".	c #C0C0C0",
"+	c #BFBFBF",
"@	c #BDBDBD",
"#	c #000000",
"$	c #B1B1B1",
"%	c #FFFFFF",
"&	c #DEDEDE",
"*	c #BBBBBB",
"=	c #EFEFEF",
"-	c #D1D1D1",
";	c #B6B6B6",
">	c #C9C9C9",
",	c #D2D2D2",
"'	c #F0F0F0",
")	c #BCBCBC",
"!	c #A3A3A3",
"~	c #BABABA",
"{	c #B9B9B9",
".+@@+.........+.......",
".####.........#$......",
".#%%&#........##+.....",
".#%%%############.....",
".#%%%%%%%%%%%%%%##....",
".#%%%%%%%%%%%%%%%#*...",
".#%%%%%%%%%%%%%%%=#...",
".#%%%%%%%%%%%%%%%%-#..",
".#%%%%%%%%%%%%%%%%%#;.",
".#%%%%%%%%%%%%%%%%%%#.",
".#%%%%%%%%%%%%%%%%%%>#",
".#%%%%%%%%%%%%%%%%%%##",
".#%%%%%%%%%%%%%%%%%,#.",
".#%%%%%%%%%%%%%%%%'#..",
".#%%%%%%%%%%%%%%%%#)..",
".#%%%%%%%%%%%%%%%#!...",
".#%%%%%%%%%%%%%%##....",
".#%%%%%%%%%%%%%%#~....",
".#%%%############.....",
".#%%*#........##......",
".####.........#{......",
"......................"};
